<?xml version="1.0" encoding="UTF-8" standalone="no"?>
<!DOCTYPE svg PUBLIC "-//W3C//DTD SVG 1.1//EN" "http://www.w3.org/Graphics/SVG/1.1/DTD/svg11.dtd">
<svg width="100%" height="100%" viewBox="0 0 57 49" version="1.1" xmlns="http://www.w3.org/2000/svg" xmlns:xlink="http://www.w3.org/1999/xlink" xml:space="preserve" xmlns:serif="http://www.serif.com/" style="fill-rule:evenodd;clip-rule:evenodd;stroke-miterlimit:10;">
    <g transform="matrix(1,0,0,1,-469.95,-164.95)">
        <g transform="matrix(1,0,0,1,486.45,175.45)">
            <path d="M0,10C0,4.477 4.477,0 10,0C15.523,0 20,4.477 20,10" style="fill:none;fill-rule:nonzero;stroke:rgb(68,68,68);stroke-width:2px;"/>
        </g>
        <g transform="matrix(1,0,0,1,506.45,197.45)">
            <path d="M0,-12L4,-12C7.313,-12 10,-9.313 10,-6C10,-2.687 7.313,0 4,0" style="fill:none;fill-rule:nonzero;stroke:rgb(68,68,68);stroke-width:2px;stroke-linecap:round;"/>
        </g>
        <g transform="matrix(1,0,0,1,486.45,185.45)">
            <path d="M0,12C-3.313,12 -6,9.313 -6,6C-6,2.687 -3.313,0 0,0C3.313,0 6,2.687 6,6" style="fill:none;fill-rule:nonzero;stroke:rgb(68,68,68);stroke-width:2px;stroke-linecap:round;"/>
        </g>
        <g transform="matrix(-1,0,0,1,490.45,195.45)">
            <path d="M-16,0L0,0" style="fill:none;fill-rule:nonzero;stroke:rgb(68,68,68);stroke-width:2px;stroke-linecap:round;"/>
        </g>
        <g transform="matrix(-1,0,0,1,490.45,199.45)">
            <path d="M-14,0L0,0" style="fill:none;fill-rule:nonzero;stroke:rgb(68,68,68);stroke-width:2px;stroke-linecap:round;"/>
        </g>
        <g transform="matrix(-1,0,0,1,480.45,203.45)">
            <path d="M-6,0L0,0" style="fill:none;fill-rule:nonzero;stroke:rgb(68,68,68);stroke-width:2px;stroke-linecap:round;"/>
        </g>
        <g transform="matrix(-1,0,0,1,490.45,203.45)">
            <path d="M-12,0L0,0" style="fill:none;fill-rule:nonzero;stroke:rgb(68,68,68);stroke-width:2px;stroke-linecap:round;"/>
        </g>
    </g>
</svg>
