<?xml version="1.0" encoding="UTF-8" standalone="no"?>
<!DOCTYPE svg PUBLIC "-//W3C//DTD SVG 1.1//EN" "http://www.w3.org/Graphics/SVG/1.1/DTD/svg11.dtd">
<svg width="100%" height="100%" viewBox="0 0 57 49" version="1.1" xmlns="http://www.w3.org/2000/svg" xmlns:xlink="http://www.w3.org/1999/xlink" xml:space="preserve" xmlns:serif="http://www.serif.com/" style="fill-rule:evenodd;clip-rule:evenodd;stroke-miterlimit:10;">
    <g transform="matrix(1,0,0,1,-469.95,-164.95)">
        <g transform="matrix(1,0,0,1,486,175)">
            <path d="M0,10C0,4.477 4.478,0 10,0C15.522,0 20,4.477 20,10" style="fill:none;fill-rule:nonzero;stroke:rgb(68,68,68);stroke-width:2px;"/>
        </g>
        <g transform="matrix(1,0,0,1,510,185)">
            <path d="M0,12C3.313,12 6,9.313 6,6C6,2.687 3.313,0 0,0L-4,0" style="fill:none;fill-rule:nonzero;stroke:rgb(68,68,68);stroke-width:2px;stroke-linecap:round;"/>
        </g>
        <g transform="matrix(1,0,0,1,492,191)">
            <path d="M0,0C0,-3.313 -2.687,-6 -6,-6C-9.313,-6 -12,-3.313 -12,0C-12,3.313 -9.313,6 -6,6" style="fill:none;fill-rule:nonzero;stroke:rgb(68,68,68);stroke-width:2px;stroke-linecap:round;"/>
        </g>
        <g transform="matrix(-0.242536,0.970143,0.970143,0.242536,495.638,200.94)">
            <path d="M-5.123,-4L3.123,-4" style="fill:none;fill-rule:nonzero;stroke:rgb(68,68,68);stroke-width:2px;stroke-linecap:round;"/>
        </g>
        <g transform="matrix(-0.242536,0.970143,0.970143,0.242536,500.319,197.97)">
            <path d="M-2.562,-2L1.562,-2" style="fill:none;fill-rule:nonzero;stroke:rgb(68,68,68);stroke-width:2px;stroke-linecap:round;"/>
        </g>
        <g transform="matrix(-0.242536,0.970143,0.970143,0.242536,507.638,200.94)">
            <path d="M-5.123,-4L3.123,-4" style="fill:none;fill-rule:nonzero;stroke:rgb(68,68,68);stroke-width:2px;stroke-linecap:round;"/>
        </g>
    </g>
</svg>
